<svg width="205" height="205" viewBox="0 0 205 205" fill="none" xmlns="http://www.w3.org/2000/svg">
<rect x="2.9753" y="2.97438" width="200" height="200" rx="16" fill="black" fill-opacity="0.06" stroke="black" stroke-width="4" stroke-dasharray="16 16"/>
<path fill-rule="evenodd" clip-rule="evenodd" d="M125.481 44.4607C125.481 43.9084 125.033 43.4607 124.481 43.4607H81.6915C81.1392 43.4607 80.6915 43.9084 80.6915 44.4607V110.039C80.6915 110.591 80.2438 111.039 79.6915 111.039H57.9061C57.0373 111.039 56.5818 112.07 57.167 112.712L102.236 162.162C102.633 162.597 103.318 162.597 103.714 162.162L148.784 112.712C149.369 112.07 148.913 111.039 148.045 111.039H126.481C125.928 111.039 125.481 110.591 125.481 110.039V44.4607Z" fill="black"/>
</svg>
