<svg
  width="17px"
  height="18px"
  viewBox="0 0 17 18"
  version="1.1"
  xmlns="http://www.w3.org/2000/svg"
  xmlns:xlink="http://www.w3.org/1999/xlink"
>
  <g id="nav-bar" stroke="none" stroke-width="1" fill="none" fill-rule="evenodd">
    <g id="Document_add">
      <path
        d="M14.2195972,9.9673202 L14.2195972,5.85253673 C14.219738,5.4450471 14.110695,5.04516134 13.9040998,4.69553525 C13.868744,4.6338934 13.828626,4.57518457 13.784122,4.51995915 L10.8513301,0.981425437 C10.437229,0.367165297 9.75033503,-0.000167456079 9.01611332,5.72681643e-08 L2.22181206,5.72681643e-08 C0.99473914,5.72681643e-08 0,1.00779618 0,2.2509757 L0,14.8564393 C0,16.0996188 0.99473914,17.1074149 2.22181206,17.1074149 L9.6382207,17.1074149 C10.8952951,18.092201 12.5920506,18.2774502 14.0273573,17.5866144 C15.462664,16.8957786 16.3927932,15.4461682 16.433399,13.8367882 C16.4740047,12.2274082 15.6181916,10.7315466 14.2195972,9.9673202 L14.2195972,9.9673202 Z M1.33308723,14.8564393 L1.33308723,2.2509757 C1.33308723,1.75370389 1.73098289,1.35058544 2.22181206,1.35058544 L9.01611332,1.35058544 C9.33011793,1.35410436 9.61898035,1.52524708 9.77597304,1.80078057 L12.7576448,5.4023416 C12.8390786,5.53824809 12.8835404,5.69357694 12.8865099,5.85253673 L12.8865099,9.51262312 C11.302099,9.25483038 9.71058207,9.93043641 8.78080752,11.2555121 C7.85103296,12.5805877 7.74415754,14.3254592 8.50509655,15.7568296 L2.22181206,15.7568296 C1.73098289,15.7568296 1.33308723,15.3537111 1.33308723,14.8564393 Z M12.2199663,16.6572198 C10.6247715,16.6572198 9.33161063,15.3470849 9.33161063,13.7309515 C9.33161063,12.1148181 10.6247715,10.8046831 12.2199663,10.8046831 C13.8151611,10.8046831 15.108322,12.1148181 15.108322,13.7309515 C15.108322,15.3470849 13.8151611,16.6572198 12.2199663,16.6572198 Z"
        id="Shape"
        fill="#FFFFFF"
      ></path>
      <path
        d="M13.4347826,13.0434783 L12.7826087,13.0434783 L12.7826087,12.3913043 C12.7826087,12.0311186 12.4906205,11.7391304 12.1304348,11.7391304 C11.7702491,11.7391304 11.4782609,12.0311186 11.4782609,12.3913043 L11.4782609,13.0434783 L10.826087,13.0434783 C10.4659013,13.0434783 10.173913,13.3354665 10.173913,13.6956522 C10.173913,14.0558379 10.4659013,14.3478261 10.826087,14.3478261 L11.4782609,14.3478261 L11.4782609,15 C11.4782609,15.3601857 11.7702491,15.6521739 12.1304348,15.6521739 C12.4906205,15.6521739 12.7826087,15.3601857 12.7826087,15 L12.7826087,14.3478261 L13.4347826,14.3478261 C13.7949683,14.3478261 14.0869565,14.0558379 14.0869565,13.6956522 C14.0869565,13.3354665 13.7949683,13.0434783 13.4347826,13.0434783 Z"
        id="Shape"
        fill="#D63131"
      ></path>
    </g>
  </g>
</svg>
