<svg
  width="18px"
  height="18px"
  viewBox="0 0 18 18"
  version="1.1"
  xmlns="http://www.w3.org/2000/svg"
  xmlns:xlink="http://www.w3.org/1999/xlink"
>
  <g id="nav-bar" stroke="none" stroke-width="1" fill="none" fill-rule="evenodd">
    <g id="Group" fill="#FFFFFF" fill-rule="nonzero">
      <path
        d="M9,0 C4.0275,0 0,4.12937095 0,9.22764459 C0,13.3108773 2.57625,16.7597095 6.15375,17.9823724 C6.60375,18.0631143 6.7725,17.7862849 6.7725,17.5440593 C6.7725,17.3249027 6.76125,16.5982257 6.76125,15.8254105 C4.5,16.252189 3.915,15.2602172 3.735,14.7411622 C3.63375,14.4758674 3.195,13.656914 2.8125,13.4377574 C2.4975,13.2647391 2.0475,12.8379605 2.80125,12.826426 C3.51,12.8148914 4.01625,13.4954302 4.185,13.7722595 C4.995,15.1679408 6.28875,14.7757659 6.80625,14.5335402 C6.885,13.9337433 7.12125,13.5300339 7.38,13.2993428 C5.3775,13.0686516 3.285,12.2727673 3.285,8.74319325 C3.285,7.7396869 3.63375,6.90919888 4.2075,6.26326376 C4.1175,6.03257265 3.8025,5.08673908 4.2975,3.81793795 C4.2975,3.81793795 5.05125,3.57571228 6.7725,4.76377152 C7.4925,4.55614951 8.2575,4.45233851 9.0225,4.45233851 C9.7875,4.45233851 10.5525,4.55614951 11.2725,4.76377152 C12.99375,3.56417772 13.7475,3.81793795 13.7475,3.81793795 C14.2425,5.08673908 13.9275,6.03257265 13.8375,6.26326376 C14.41125,6.90919888 14.76,7.72815234 14.76,8.74319325 C14.76,12.2843019 12.65625,13.0686516 10.65375,13.2993428 C10.98,13.5877067 11.26125,14.1413653 11.26125,15.006457 C11.26125,16.2406545 11.25,17.2326263 11.25,17.5440593 C11.25,17.7862849 11.41875,18.0746488 11.86875,17.9823724 C15.532252,16.7143283 17.9990115,13.1920762 18,9.22764459 C18,4.12937095 13.9725,0 9,0 Z"
        id="Path"
      ></path>
    </g>
  </g>
</svg>
