<svg
  width="19px"
  height="17px"
  viewBox="0 0 19 17"
  version="1.1"
  xmlns="http://www.w3.org/2000/svg"
  xmlns:xlink="http://www.w3.org/1999/xlink"
>
  <g id="nav-bar" stroke="none" stroke-width="1" fill="none" fill-rule="evenodd">
    <g id="Group" transform="translate(0.000000, 0.354000)" fill="#FCFCFC" fill-rule="nonzero">
      <path
        d="M8.854,7 L0.854,15 L0.854,15 C0.658797522,15.1949739 0.658612226,15.5112744 0.85358613,15.7064768 C0.947287568,15.8002881 1.07443994,15.853 1.20703148,15.853 L8.707,15.853 C9.25928475,15.853 9.707,15.4052847 9.707,14.853 L9.707,11.56 L9.707,11.56 L18.561,2.707 L18.561,2 L16.561,0 L15.854,0 L8.854,7 Z M9.99989322,7.26710678 L16.207,1.06 L16.207,1.06 L17.5,2.353 L9.707,10.146 L9.707,7.97421356 C9.707,7.70899707 9.81235684,7.45464316 9.99989322,7.26710678 Z M4.12110678,13.1458932 L8.707,8.56 L8.707,8.56 L8.707,14.853 L4.82821356,14.853 C4.27592881,14.853 3.82821356,14.4052847 3.82821356,13.853 C3.82821356,13.5877835 3.9335704,13.3334296 4.12110678,13.1458932 Z"
        id="Shape"
      ></path>
    </g>
  </g>
</svg>
